<mxfile host="app.diagrams.net" modified="2023-09-19T21:32:45.811Z" agent="Mozilla/5.0 (X11; Linux x86_64) AppleWebKit/537.36 (KHTML, like Gecko) Chrome/117.0.0.0 Safari/537.36" etag="n1cO1q0TolzAe_rSaXYs" version="21.7.5" type="device">
  <diagram name="Page-1" id="HsMoxfYxCOE9cTzTc1os">
    <mxGraphModel dx="2023" dy="734" grid="1" gridSize="10" guides="1" tooltips="1" connect="1" arrows="1" fold="1" page="1" pageScale="1" pageWidth="850" pageHeight="1100" math="0" shadow="0">
      <root>
        <mxCell id="0" />
        <mxCell id="1" parent="0" />
        <mxCell id="KKtzOABL4hCZZFv5GGaf-5" value="" style="sketch=0;points=[[0,0,0],[0.25,0,0],[0.5,0,0],[0.75,0,0],[1,0,0],[0,1,0],[0.25,1,0],[0.5,1,0],[0.75,1,0],[1,1,0],[0,0.25,0],[0,0.5,0],[0,0.75,0],[1,0.25,0],[1,0.5,0],[1,0.75,0]];outlineConnect=0;fontColor=#232F3E;fillColor=#8C4FFF;strokeColor=#ffffff;dashed=0;verticalLabelPosition=bottom;verticalAlign=top;align=center;html=1;fontSize=12;fontStyle=0;aspect=fixed;shape=mxgraph.aws4.resourceIcon;resIcon=mxgraph.aws4.glue;" vertex="1" parent="1">
          <mxGeometry x="1284" y="211" width="78" height="78" as="geometry" />
        </mxCell>
        <mxCell id="KKtzOABL4hCZZFv5GGaf-6" value="" style="sketch=0;outlineConnect=0;fontColor=#232F3E;gradientColor=none;fillColor=#8C4FFF;strokeColor=none;dashed=0;verticalLabelPosition=bottom;verticalAlign=top;align=center;html=1;fontSize=12;fontStyle=0;aspect=fixed;pointerEvents=1;shape=mxgraph.aws4.glue_crawlers;" vertex="1" parent="1">
          <mxGeometry x="890" y="211" width="78" height="78" as="geometry" />
        </mxCell>
        <mxCell id="KKtzOABL4hCZZFv5GGaf-7" value="" style="sketch=0;points=[[0,0,0],[0.25,0,0],[0.5,0,0],[0.75,0,0],[1,0,0],[0,1,0],[0.25,1,0],[0.5,1,0],[0.75,1,0],[1,1,0],[0,0.25,0],[0,0.5,0],[0,0.75,0],[1,0.25,0],[1,0.5,0],[1,0.75,0]];outlineConnect=0;fontColor=#232F3E;fillColor=#7AA116;strokeColor=#ffffff;dashed=0;verticalLabelPosition=bottom;verticalAlign=top;align=center;html=1;fontSize=12;fontStyle=0;aspect=fixed;shape=mxgraph.aws4.resourceIcon;resIcon=mxgraph.aws4.s3;" vertex="1" parent="1">
          <mxGeometry x="690" y="211" width="78" height="78" as="geometry" />
        </mxCell>
        <mxCell id="KKtzOABL4hCZZFv5GGaf-11" value="" style="sketch=0;points=[[0,0,0],[0.25,0,0],[0.5,0,0],[0.75,0,0],[1,0,0],[0,1,0],[0.25,1,0],[0.5,1,0],[0.75,1,0],[1,1,0],[0,0.25,0],[0,0.5,0],[0,0.75,0],[1,0.25,0],[1,0.5,0],[1,0.75,0]];outlineConnect=0;fontColor=#232F3E;fillColor=#8C4FFF;strokeColor=#ffffff;dashed=0;verticalLabelPosition=bottom;verticalAlign=top;align=center;html=1;fontSize=12;fontStyle=0;aspect=fixed;shape=mxgraph.aws4.resourceIcon;resIcon=mxgraph.aws4.redshift;" vertex="1" parent="1">
          <mxGeometry x="1480" y="211" width="78" height="78" as="geometry" />
        </mxCell>
        <mxCell id="KKtzOABL4hCZZFv5GGaf-12" value="" style="sketch=0;points=[[0,0,0],[0.25,0,0],[0.5,0,0],[0.75,0,0],[1,0,0],[0,1,0],[0.25,1,0],[0.5,1,0],[0.75,1,0],[1,1,0],[0,0.25,0],[0,0.5,0],[0,0.75,0],[1,0.25,0],[1,0.5,0],[1,0.75,0]];outlineConnect=0;fontColor=#232F3E;fillColor=#8C4FFF;strokeColor=#ffffff;dashed=0;verticalLabelPosition=bottom;verticalAlign=top;align=center;html=1;fontSize=12;fontStyle=0;aspect=fixed;shape=mxgraph.aws4.resourceIcon;resIcon=mxgraph.aws4.athena;" vertex="1" parent="1">
          <mxGeometry x="1090" y="411" width="78" height="78" as="geometry" />
        </mxCell>
        <mxCell id="KKtzOABL4hCZZFv5GGaf-13" value="" style="sketch=0;outlineConnect=0;fontColor=#232F3E;gradientColor=none;fillColor=#8C4FFF;strokeColor=none;dashed=0;verticalLabelPosition=bottom;verticalAlign=top;align=center;html=1;fontSize=12;fontStyle=0;aspect=fixed;pointerEvents=1;shape=mxgraph.aws4.glue_data_catalog;" vertex="1" parent="1">
          <mxGeometry x="1090" y="211" width="72" height="78" as="geometry" />
        </mxCell>
        <mxCell id="KKtzOABL4hCZZFv5GGaf-14" style="edgeStyle=orthogonalEdgeStyle;rounded=0;orthogonalLoop=1;jettySize=auto;html=1;exitX=0.5;exitY=1;exitDx=0;exitDy=0;exitPerimeter=0;" edge="1" parent="1" source="KKtzOABL4hCZZFv5GGaf-11" target="KKtzOABL4hCZZFv5GGaf-11">
          <mxGeometry relative="1" as="geometry" />
        </mxCell>
        <mxCell id="KKtzOABL4hCZZFv5GGaf-15" value="" style="edgeStyle=orthogonalEdgeStyle;html=1;endArrow=block;elbow=vertical;startArrow=none;endFill=1;strokeColor=#545B64;rounded=0;" edge="1" parent="1">
          <mxGeometry width="100" relative="1" as="geometry">
            <mxPoint x="780" y="249.5" as="sourcePoint" />
            <mxPoint x="880" y="249.5" as="targetPoint" />
          </mxGeometry>
        </mxCell>
        <mxCell id="KKtzOABL4hCZZFv5GGaf-17" value="" style="edgeStyle=orthogonalEdgeStyle;html=1;endArrow=block;elbow=vertical;startArrow=none;endFill=1;strokeColor=#545B64;rounded=0;" edge="1" parent="1">
          <mxGeometry width="100" relative="1" as="geometry">
            <mxPoint x="980" y="249.5" as="sourcePoint" />
            <mxPoint x="1080" y="249.5" as="targetPoint" />
          </mxGeometry>
        </mxCell>
        <mxCell id="KKtzOABL4hCZZFv5GGaf-18" value="" style="edgeStyle=orthogonalEdgeStyle;html=1;endArrow=block;elbow=vertical;startArrow=none;endFill=1;strokeColor=#545B64;rounded=0;" edge="1" parent="1">
          <mxGeometry width="100" relative="1" as="geometry">
            <mxPoint x="1170" y="249.5" as="sourcePoint" />
            <mxPoint x="1270" y="249.5" as="targetPoint" />
          </mxGeometry>
        </mxCell>
        <mxCell id="KKtzOABL4hCZZFv5GGaf-19" value="" style="edgeStyle=orthogonalEdgeStyle;html=1;endArrow=block;elbow=vertical;startArrow=none;endFill=1;strokeColor=#545B64;rounded=0;" edge="1" parent="1">
          <mxGeometry width="100" relative="1" as="geometry">
            <mxPoint x="1370" y="249.5" as="sourcePoint" />
            <mxPoint x="1470" y="249.5" as="targetPoint" />
          </mxGeometry>
        </mxCell>
        <mxCell id="KKtzOABL4hCZZFv5GGaf-21" value="" style="edgeStyle=orthogonalEdgeStyle;html=1;endArrow=block;elbow=vertical;startArrow=none;endFill=1;strokeColor=#545B64;rounded=0;" edge="1" parent="1">
          <mxGeometry width="100" relative="1" as="geometry">
            <mxPoint x="1125.5" y="301" as="sourcePoint" />
            <mxPoint x="1125.5" y="401" as="targetPoint" />
          </mxGeometry>
        </mxCell>
        <mxCell id="KKtzOABL4hCZZFv5GGaf-22" value="&lt;b&gt;&lt;font style=&quot;font-size: 14px;&quot;&gt;S3&lt;/font&gt;&lt;/b&gt;" style="text;html=1;strokeColor=none;fillColor=none;align=center;verticalAlign=middle;whiteSpace=wrap;rounded=0;" vertex="1" parent="1">
          <mxGeometry x="699" y="298" width="60" height="30" as="geometry" />
        </mxCell>
        <mxCell id="KKtzOABL4hCZZFv5GGaf-23" value="&lt;b&gt;&lt;font style=&quot;font-size: 14px;&quot;&gt;Glue&lt;br&gt;Crawler&lt;br&gt;&lt;/font&gt;&lt;/b&gt;" style="text;html=1;strokeColor=none;fillColor=none;align=center;verticalAlign=middle;whiteSpace=wrap;rounded=0;" vertex="1" parent="1">
          <mxGeometry x="895" y="297" width="75" height="30" as="geometry" />
        </mxCell>
        <mxCell id="KKtzOABL4hCZZFv5GGaf-24" value="&lt;b&gt;&lt;font style=&quot;font-size: 14px;&quot;&gt;Glue&lt;br&gt;Data Catalog&lt;br&gt;&lt;/font&gt;&lt;/b&gt;" style="text;html=1;strokeColor=none;fillColor=none;align=center;verticalAlign=middle;whiteSpace=wrap;rounded=0;" vertex="1" parent="1">
          <mxGeometry x="1086" y="170" width="90" height="30" as="geometry" />
        </mxCell>
        <mxCell id="KKtzOABL4hCZZFv5GGaf-25" value="&lt;b&gt;&lt;font style=&quot;font-size: 14px;&quot;&gt;Athena&lt;br&gt;&lt;/font&gt;&lt;/b&gt;" style="text;html=1;strokeColor=none;fillColor=none;align=center;verticalAlign=middle;whiteSpace=wrap;rounded=0;" vertex="1" parent="1">
          <mxGeometry x="1091.5" y="494" width="75" height="30" as="geometry" />
        </mxCell>
        <mxCell id="KKtzOABL4hCZZFv5GGaf-26" value="&lt;b&gt;&lt;font style=&quot;font-size: 14px;&quot;&gt;Glue &lt;br&gt;ETL Job&lt;br&gt;&lt;/font&gt;&lt;/b&gt;" style="text;html=1;strokeColor=none;fillColor=none;align=center;verticalAlign=middle;whiteSpace=wrap;rounded=0;" vertex="1" parent="1">
          <mxGeometry x="1279" y="291" width="90" height="44" as="geometry" />
        </mxCell>
        <mxCell id="KKtzOABL4hCZZFv5GGaf-27" value="&lt;b&gt;&lt;font style=&quot;font-size: 14px;&quot;&gt;Redshift&lt;br&gt;Serverless&lt;br&gt;&lt;/font&gt;&lt;/b&gt;" style="text;html=1;strokeColor=none;fillColor=none;align=center;verticalAlign=middle;whiteSpace=wrap;rounded=0;" vertex="1" parent="1">
          <mxGeometry x="1475" y="293" width="90" height="44" as="geometry" />
        </mxCell>
        <mxCell id="KKtzOABL4hCZZFv5GGaf-28" value="" style="sketch=0;points=[[0,0,0],[0.25,0,0],[0.5,0,0],[0.75,0,0],[1,0,0],[0,1,0],[0.25,1,0],[0.5,1,0],[0.75,1,0],[1,1,0],[0,0.25,0],[0,0.5,0],[0,0.75,0],[1,0.25,0],[1,0.5,0],[1,0.75,0]];outlineConnect=0;fontColor=#232F3E;fillColor=#8C4FFF;strokeColor=#ffffff;dashed=0;verticalLabelPosition=bottom;verticalAlign=top;align=center;html=1;fontSize=12;fontStyle=0;aspect=fixed;shape=mxgraph.aws4.resourceIcon;resIcon=mxgraph.aws4.glue;" vertex="1" parent="1">
          <mxGeometry x="490" y="211" width="78" height="78" as="geometry" />
        </mxCell>
        <mxCell id="KKtzOABL4hCZZFv5GGaf-29" value="" style="edgeStyle=orthogonalEdgeStyle;html=1;endArrow=block;elbow=vertical;startArrow=none;endFill=1;strokeColor=#545B64;rounded=0;" edge="1" parent="1">
          <mxGeometry width="100" relative="1" as="geometry">
            <mxPoint x="576" y="249.5" as="sourcePoint" />
            <mxPoint x="676" y="249.5" as="targetPoint" />
          </mxGeometry>
        </mxCell>
        <mxCell id="KKtzOABL4hCZZFv5GGaf-30" value="&lt;b&gt;&lt;font style=&quot;font-size: 14px;&quot;&gt;Glue &lt;br&gt;Python Job&lt;br&gt;&lt;/font&gt;&lt;/b&gt;" style="text;html=1;strokeColor=none;fillColor=none;align=center;verticalAlign=middle;whiteSpace=wrap;rounded=0;" vertex="1" parent="1">
          <mxGeometry x="485" y="291" width="90" height="44" as="geometry" />
        </mxCell>
        <mxCell id="KKtzOABL4hCZZFv5GGaf-31" value="" style="image;aspect=fixed;perimeter=ellipsePerimeter;html=1;align=center;shadow=0;dashed=0;spacingTop=3;image=img/lib/active_directory/internet_cloud.svg;" vertex="1" parent="1">
          <mxGeometry x="273" y="216.5" width="100" height="63" as="geometry" />
        </mxCell>
        <mxCell id="KKtzOABL4hCZZFv5GGaf-32" value="&lt;b&gt;&lt;font style=&quot;font-size: 14px;&quot;&gt;Internet Data Source&lt;br&gt;&lt;/font&gt;&lt;/b&gt;" style="text;html=1;strokeColor=none;fillColor=none;align=center;verticalAlign=middle;whiteSpace=wrap;rounded=0;" vertex="1" parent="1">
          <mxGeometry x="278" y="288" width="90" height="44" as="geometry" />
        </mxCell>
        <mxCell id="KKtzOABL4hCZZFv5GGaf-33" value="" style="edgeStyle=orthogonalEdgeStyle;html=1;endArrow=block;elbow=vertical;startArrow=none;endFill=1;strokeColor=#545B64;rounded=0;" edge="1" parent="1">
          <mxGeometry width="100" relative="1" as="geometry">
            <mxPoint x="380" y="249.5" as="sourcePoint" />
            <mxPoint x="480" y="249.5" as="targetPoint" />
          </mxGeometry>
        </mxCell>
      </root>
    </mxGraphModel>
  </diagram>
</mxfile>
